<svg xmlns="http://www.w3.org/2000/svg" id="canvas" viewBox="191.925 230.530 1018.759 246.734"><path d="M 220.68,333.57 C 222.22 333.26, 223.83 332.30, 227.28 330.23 C 230.73 328.16, 233.11 326.55, 237.94 323.22 C 242.78 319.88, 245.95 317.69, 251.47 313.55 C 256.99 309.42, 259.95 307.10, 265.55 302.54 C 271.14 297.98, 274.05 295.49, 279.45 290.76 C 284.84 286.02, 287.64 283.49, 292.52 278.86 C 297.40 274.24, 299.79 271.91, 303.85 267.62 C 307.91 263.34, 309.79 261.17, 312.82 257.44 C 315.84 253.71, 317.16 252.04, 319.00 248.98 C 320.83 245.91, 321.43 244.50, 321.98 242.12 C 322.53 239.73, 322.36 238.64, 321.75 237.04 C 321.13 235.43, 320.40 234.72, 318.92 234.10 C 317.44 233.47, 316.33 233.29, 314.33 233.93 C 312.33 234.57, 311.15 235.16, 308.92 237.30 C 306.69 239.45, 305.78 241.09, 303.18 244.65 C 300.59 248.20, 299.24 250.22, 295.95 255.08 C 292.67 259.94, 290.87 262.79, 286.76 268.95 C 282.66 275.11, 280.30 278.64, 275.45 285.88 C 270.59 293.12, 267.94 297.16, 262.50 305.16 C 257.05 313.15, 253.96 317.53, 248.22 325.86 C 242.49 334.20, 239.34 338.68, 233.83 346.83 C 228.32 354.98, 225.52 359.29, 220.68 366.61 C 215.83 373.94, 213.50 377.49, 209.61 383.47 C 205.73 389.46, 204.00 392.16, 201.26 396.52 C 198.52 400.89, 197.11 402.49, 195.92 405.30 C 194.73 408.11, 194.72 409.12, 195.30 410.57 C 195.87 412.01, 196.80 412.52, 198.79 412.53 C 200.77 412.54, 202.21 412.06, 205.22 410.60 C 208.22 409.14, 209.88 407.53, 213.83 405.24 C 217.78 402.95, 220.25 401.53, 224.98 399.16 C 229.72 396.79, 232.33 395.51, 237.52 393.38 C 242.70 391.25, 245.57 390.14, 250.89 388.52 C 256.22 386.90, 258.96 386.33, 264.13 385.26 C 269.31 384.19, 271.86 383.84, 276.78 383.18 C 281.70 382.51, 284.18 382.28, 288.73 381.92 C 293.29 381.56, 295.46 381.67, 299.55 381.39 C 303.63 381.10, 305.45 381.01, 309.17 380.49 C 312.88 379.98, 314.65 379.67, 318.12 378.81 C 321.59 377.94, 323.33 377.48, 326.51 376.17 C 329.69 374.86, 331.17 373.97, 334.03 372.25 C 336.89 370.53, 338.28 369.51, 340.80 367.57 C 343.32 365.64, 344.48 364.62, 346.63 362.58 C 348.78 360.54, 349.73 359.33, 351.55 357.38 C 353.37 355.43, 354.40 354.49, 355.74 352.82 C 357.09 351.15, 357.89 350.12, 358.28 349.03 C 358.67 347.94, 358.38 347.22, 357.69 347.39 C 357.00 347.55, 356.13 347.86, 354.83 349.86 C 353.54 351.85, 352.96 353.76, 351.21 357.35 C 349.46 360.95, 348.22 363.46, 346.08 367.82 C 343.94 372.18, 342.47 374.83, 340.52 379.14 C 338.57 383.46, 337.56 385.67, 336.34 389.41 C 335.12 393.15, 334.36 394.96, 334.43 397.83 C 334.50 400.70, 335.10 402.09, 336.68 403.76 C 338.26 405.44, 339.62 406.17, 342.34 406.22 C 345.05 406.27, 346.75 405.62, 350.24 404.01 C 353.73 402.41, 355.59 401.03, 359.77 398.19 C 363.96 395.36, 366.38 393.45, 371.18 389.82 C 375.97 386.19, 378.67 384.00, 383.76 380.05 C 388.85 376.10, 391.54 373.86, 396.64 370.07 C 401.74 366.29, 404.37 364.34, 409.24 361.11 C 414.12 357.89, 416.59 356.35, 421.03 353.96 C 425.47 351.56, 427.61 350.57, 431.44 349.13 C 435.26 347.68, 437.10 347.36, 440.16 346.74 C 443.21 346.13, 444.54 346.13, 446.73 346.06 C 448.92 345.98, 449.75 346.12, 451.10 346.36 C 452.45 346.60, 452.87 346.97, 453.47 347.27 C 454.08 347.56, 454.14 347.66, 454.13 347.83 C 454.12 347.99, 453.99 347.84, 453.41 348.08 C 452.83 348.31, 452.46 348.46, 451.22 348.99 C 449.99 349.52, 449.28 349.63, 447.24 350.73 C 445.21 351.82, 443.95 352.56, 441.06 354.45 C 438.17 356.33, 436.31 357.56, 432.82 360.14 C 429.32 362.72, 427.31 364.26, 423.58 367.36 C 419.85 370.46, 417.60 372.31, 414.18 375.65 C 410.76 378.99, 408.99 380.89, 406.50 384.06 C 404.01 387.23, 402.72 388.75, 401.73 391.48 C 400.74 394.22, 400.75 395.75, 401.55 397.74 C 402.34 399.73, 403.41 400.80, 405.69 401.43 C 407.98 402.07, 409.68 401.98, 412.97 400.92 C 416.27 399.87, 418.18 398.58, 422.16 396.14 C 426.14 393.71, 428.42 392.05, 432.85 388.75 C 437.29 385.46, 439.79 383.41, 444.32 379.68 C 448.85 375.94, 451.39 373.70, 455.51 370.08 C 459.62 366.47, 462.10 364.43, 464.89 361.61 C 467.67 358.78, 468.81 357.37, 469.43 355.98 C 470.05 354.59, 469.23 354.06, 467.99 354.67 C 466.74 355.29, 465.20 356.37, 463.19 359.05 C 461.19 361.73, 459.80 364.20, 457.97 368.08 C 456.13 371.95, 454.97 374.47, 454.02 378.43 C 453.07 382.39, 452.49 384.58, 453.21 387.88 C 453.92 391.18, 454.91 392.94, 457.61 394.95 C 460.31 396.96, 462.40 397.53, 466.71 397.92 C 471.01 398.32, 474.21 397.68, 479.16 396.93 C 484.11 396.17, 487.22 395.40, 491.44 394.15 C 495.66 392.89, 498.64 391.77, 500.27 390.65 C 501.90 389.53, 501.54 388.53, 499.60 388.56 C 497.66 388.58, 494.76 389.83, 490.56 390.76 C 486.37 391.69, 483.31 392.53, 478.61 393.20 C 473.90 393.87, 470.76 394.39, 467.03 394.10 C 463.30 393.81, 461.91 393.13, 459.96 391.73 C 458.01 390.34, 457.63 389.55, 457.29 387.12 C 456.94 384.69, 457.18 382.94, 458.23 379.59 C 459.29 376.24, 460.67 373.94, 462.57 370.39 C 464.47 366.85, 466.27 364.79, 467.74 361.87 C 469.21 358.96, 469.90 357.34, 469.92 355.82 C 469.94 354.29, 469.35 353.62, 467.81 354.25 C 466.28 354.87, 465.12 356.20, 462.26 358.92 C 459.39 361.65, 457.44 364.15, 453.49 367.86 C 449.54 371.57, 446.99 373.79, 442.50 377.45 C 438.00 381.11, 435.46 383.11, 431.00 386.16 C 426.55 389.22, 424.15 390.71, 420.24 392.74 C 416.32 394.76, 414.21 395.28, 411.41 396.29 C 408.60 397.29, 407.62 397.65, 406.20 397.77 C 404.79 397.88, 404.44 397.81, 404.34 396.88 C 404.23 395.96, 404.63 395.24, 405.68 393.14 C 406.72 391.04, 407.36 389.37, 409.55 386.37 C 411.74 383.37, 413.37 381.38, 416.63 378.13 C 419.88 374.88, 422.13 373.05, 425.83 370.13 C 429.53 367.21, 431.56 365.76, 435.12 363.52 C 438.69 361.27, 440.69 360.42, 443.65 358.89 C 446.62 357.36, 447.89 356.92, 449.95 355.86 C 452.01 354.79, 452.61 354.57, 453.95 353.57 C 455.30 352.56, 456.00 352.05, 456.66 350.83 C 457.31 349.60, 457.41 348.71, 457.22 347.44 C 457.03 346.17, 456.72 345.47, 455.69 344.47 C 454.67 343.47, 453.91 342.98, 452.08 342.43 C 450.26 341.88, 449.15 341.62, 446.58 341.72 C 444.01 341.81, 442.52 342.01, 439.24 342.89 C 435.97 343.78, 434.13 344.41, 430.21 346.14 C 426.30 347.87, 424.15 348.96, 419.68 351.53 C 415.20 354.10, 412.74 355.70, 407.84 359.01 C 402.94 362.33, 400.31 364.31, 395.18 368.11 C 390.06 371.91, 387.35 374.14, 382.21 378.02 C 377.07 381.90, 374.34 384.06, 369.48 387.50 C 364.62 390.95, 362.10 392.74, 357.89 395.23 C 353.69 397.73, 351.61 398.63, 348.45 399.97 C 345.28 401.32, 343.97 401.64, 342.07 401.98 C 340.18 402.31, 339.67 402.46, 338.96 401.66 C 338.26 400.85, 338.32 400.16, 338.53 397.95 C 338.74 395.73, 338.96 394.03, 340.02 390.57 C 341.07 387.10, 341.89 384.81, 343.80 380.63 C 345.70 376.44, 347.20 373.83, 349.55 369.64 C 351.90 365.45, 353.50 363.16, 355.53 359.66 C 357.57 356.17, 358.94 354.61, 359.73 352.15 C 360.52 349.70, 360.17 348.55, 359.48 347.38 C 358.79 346.21, 357.80 345.96, 356.27 346.29 C 354.74 346.62, 353.54 347.52, 351.82 349.03 C 350.09 350.54, 349.39 351.86, 347.65 353.85 C 345.90 355.85, 345.07 356.99, 343.11 358.99 C 341.15 360.99, 340.14 361.97, 337.85 363.85 C 335.56 365.73, 334.25 366.73, 331.64 368.40 C 329.04 370.08, 327.73 370.91, 324.81 372.21 C 321.90 373.51, 320.33 373.98, 317.08 374.90 C 313.84 375.83, 312.16 376.20, 308.59 376.82 C 305.03 377.43, 303.29 377.59, 299.26 377.99 C 295.23 378.38, 293.03 378.34, 288.45 378.80 C 283.88 379.26, 281.35 379.56, 276.37 380.31 C 271.39 381.06, 268.82 381.44, 263.57 382.55 C 258.31 383.67, 255.52 384.26, 250.10 385.90 C 244.68 387.53, 241.75 388.66, 236.45 390.73 C 231.16 392.79, 228.51 394.06, 223.60 396.24 C 218.70 398.41, 216.09 399.66, 211.93 401.61 C 207.78 403.57, 205.64 404.47, 202.84 406.03 C 200.05 407.59, 199.12 408.55, 197.95 409.40 C 196.78 410.25, 196.75 410.80, 196.98 410.27 C 197.21 409.75, 197.82 409.29, 199.11 406.79 C 200.40 404.29, 200.99 402.24, 203.42 397.79 C 205.85 393.33, 207.53 390.57, 211.26 384.52 C 215.00 378.47, 217.31 374.90, 222.09 367.54 C 226.86 360.18, 229.65 355.87, 235.14 347.71 C 240.63 339.56, 243.77 335.07, 249.52 326.75 C 255.27 318.43, 258.38 314.07, 263.88 306.10 C 269.38 298.14, 272.06 294.12, 277.01 286.94 C 281.96 279.77, 284.38 276.27, 288.63 270.24 C 292.89 264.20, 294.78 261.38, 298.30 256.77 C 301.82 252.15, 303.33 250.24, 306.22 247.17 C 309.11 244.10, 310.72 243.25, 312.75 241.43 C 314.79 239.60, 315.33 238.96, 316.40 238.06 C 317.46 237.17, 317.61 237.02, 318.08 236.97 C 318.56 236.92, 318.76 236.99, 318.78 237.82 C 318.81 238.64, 318.81 239.23, 318.22 241.11 C 317.62 242.98, 317.35 244.27, 315.81 247.18 C 314.28 250.10, 313.28 251.92, 310.53 255.68 C 307.78 259.43, 305.96 261.64, 302.05 265.95 C 298.14 270.27, 295.78 272.61, 290.98 277.25 C 286.18 281.89, 283.40 284.43, 278.03 289.14 C 272.66 293.85, 269.76 296.33, 264.14 300.80 C 258.53 305.27, 255.54 307.51, 249.96 311.49 C 244.39 315.48, 241.17 317.55, 236.28 320.72 C 231.38 323.90, 228.83 325.17, 225.48 327.38 C 222.14 329.58, 220.52 330.52, 219.56 331.75 C 218.60 332.99, 219.14 333.87, 220.68 333.57" style="stroke: black; fill: black;"/><path d="M 637.22,301.36 C 636.48 301.90, 636.11 302.36, 635.36 304.44 C 634.62 306.52, 634.56 307.86, 633.49 311.77 C 632.42 315.68, 631.99 318.39, 630.00 323.98 C 628.01 329.58, 626.62 333.10, 623.53 339.74 C 620.45 346.38, 618.41 350.26, 614.57 357.20 C 610.73 364.14, 608.45 367.96, 604.34 374.44 C 600.23 380.92, 597.95 384.30, 594.04 389.58 C 590.14 394.86, 588.13 397.38, 584.82 400.82 C 581.51 404.26, 579.75 405.35, 577.48 406.76 C 575.22 408.17, 574.63 408.49, 573.52 407.85 C 572.40 407.22, 572.37 406.41, 571.90 403.58 C 571.42 400.74, 570.86 398.56, 571.13 393.68 C 571.40 388.80, 571.73 385.53, 573.23 379.18 C 574.73 372.82, 575.86 369.08, 578.62 361.90 C 581.38 354.72, 583.10 350.73, 587.04 343.27 C 590.97 335.82, 593.31 331.79, 598.30 324.63 C 603.28 317.47, 606.18 313.81, 611.95 307.47 C 617.72 301.14, 620.98 298.08, 627.14 292.96 C 633.30 287.83, 636.64 285.48, 642.75 281.84 C 648.86 278.21, 652.10 276.71, 657.70 274.78 C 663.30 272.85, 666.13 272.44, 670.74 272.20 C 675.35 271.96, 677.46 272.45, 680.73 273.59 C 684.00 274.72, 685.31 275.72, 687.07 277.88 C 688.83 280.04, 689.37 281.35, 689.55 284.38 C 689.74 287.41, 689.61 289.18, 688.00 293.03 C 686.39 296.89, 685.07 299.28, 681.49 303.67 C 677.91 308.05, 675.32 310.48, 670.11 314.96 C 664.90 319.44, 661.56 321.84, 655.44 326.05 C 649.32 330.26, 645.68 332.38, 639.51 336.01 C 633.34 339.64, 629.94 341.34, 624.59 344.19 C 619.25 347.05, 616.66 348.21, 612.79 350.28 C 608.92 352.35, 607.22 352.77, 605.24 354.52 C 603.26 356.27, 602.98 357.22, 602.88 359.03 C 602.79 360.85, 603.31 361.83, 604.76 363.59 C 606.21 365.34, 607.48 366.10, 610.13 367.82 C 612.78 369.53, 614.66 370.19, 618.01 372.15 C 621.35 374.11, 623.25 375.26, 626.85 377.61 C 630.46 379.96, 632.34 381.29, 636.02 383.90 C 639.70 386.51, 641.60 388.09, 645.23 390.65 C 648.87 393.21, 650.60 394.53, 654.19 396.71 C 657.79 398.88, 659.53 400.04, 663.22 401.52 C 666.90 403.00, 668.81 403.62, 672.64 404.10 C 676.47 404.57, 678.37 404.54, 682.37 403.91 C 686.37 403.28, 688.45 402.67, 692.65 400.96 C 696.85 399.25, 699.00 398.02, 703.35 395.36 C 707.71 392.70, 710.02 391.01, 714.44 387.68 C 718.86 384.34, 721.23 382.32, 725.46 378.69 C 729.68 375.06, 731.78 373.00, 735.57 369.53 C 739.35 366.06, 741.23 364.27, 744.39 361.33 C 747.54 358.38, 749.15 357.12, 751.36 354.79 C 753.56 352.46, 754.39 351.46, 755.39 349.67 C 756.40 347.89, 756.54 347.15, 756.40 345.88 C 756.25 344.62, 755.81 343.97, 754.66 343.36 C 753.50 342.74, 752.52 342.47, 750.61 342.80 C 748.70 343.14, 747.40 343.53, 745.11 345.05 C 742.81 346.57, 741.61 347.88, 739.12 350.42 C 736.64 352.96, 735.31 354.53, 732.68 357.74 C 730.06 360.95, 728.58 362.77, 726.00 366.45 C 723.43 370.13, 721.99 372.28, 719.81 376.14 C 717.64 380.01, 716.56 382.18, 715.12 385.78 C 713.67 389.39, 712.85 391.14, 712.59 394.15 C 712.32 397.17, 712.64 398.74, 713.81 400.87 C 714.98 403.00, 716.08 403.99, 718.44 404.82 C 720.79 405.65, 722.53 405.81, 725.60 405.02 C 728.67 404.23, 730.36 403.12, 733.78 400.88 C 737.20 398.64, 739.05 397.07, 742.70 393.82 C 746.35 390.58, 748.37 388.56, 752.03 384.67 C 755.70 380.78, 757.70 378.40, 761.02 374.35 C 764.33 370.31, 766.32 367.84, 768.59 364.46 C 770.87 361.08, 771.93 359.37, 772.41 357.44 C 772.89 355.51, 772.21 354.77, 771.00 354.79 C 769.79 354.81, 768.22 355.41, 766.36 357.52 C 764.50 359.63, 763.38 361.89, 761.71 365.34 C 760.04 368.78, 758.98 371.14, 757.99 374.73 C 757.01 378.31, 756.48 380.30, 756.77 383.27 C 757.06 386.24, 757.68 387.71, 759.45 389.59 C 761.23 391.47, 762.66 392.40, 765.66 392.67 C 768.67 392.93, 770.67 392.31, 774.49 390.90 C 778.31 389.49, 780.41 388.21, 784.76 385.63 C 789.11 383.06, 791.58 381.24, 796.22 378.03 C 800.86 374.81, 803.50 372.72, 807.94 369.54 C 812.38 366.36, 815.13 364.45, 818.41 362.13 C 821.70 359.82, 823.15 358.83, 824.37 357.98 C 825.59 357.13, 825.19 357.03, 824.50 357.89 C 823.82 358.74, 822.61 359.81, 820.95 362.27 C 819.29 364.72, 818.03 366.93, 816.19 370.14 C 814.36 373.35, 812.86 375.34, 811.76 378.32 C 810.67 381.31, 810.28 382.95, 810.71 385.05 C 811.14 387.15, 811.85 388.18, 813.91 388.82 C 815.97 389.47, 817.64 389.39, 821.02 388.27 C 824.41 387.14, 826.47 385.58, 830.84 383.18 C 835.22 380.77, 837.93 379.03, 842.89 376.23 C 847.85 373.44, 850.82 371.62, 855.64 369.19 C 860.46 366.76, 863.21 365.48, 866.98 364.09 C 870.76 362.70, 872.46 362.50, 874.53 362.25 C 876.59 362.01, 876.98 361.97, 877.29 362.86 C 877.61 363.75, 876.89 364.57, 876.11 366.71 C 875.33 368.85, 874.50 370.58, 873.38 373.55 C 872.26 376.52, 871.33 378.43, 870.52 381.56 C 869.72 384.70, 869.13 386.50, 869.36 389.22 C 869.58 391.95, 870.00 393.38, 871.64 395.19 C 873.28 397.00, 874.60 397.98, 877.57 398.26 C 880.54 398.55, 882.44 397.96, 886.51 396.63 C 890.57 395.29, 892.97 394.04, 897.88 391.58 C 902.79 389.12, 905.58 387.50, 911.07 384.32 C 916.55 381.14, 919.66 379.13, 925.31 375.67 C 930.96 372.20, 934.12 370.13, 939.31 366.99 C 944.50 363.85, 947.14 362.20, 951.28 359.96 C 955.43 357.71, 957.47 356.99, 960.03 355.77 C 962.60 354.56, 963.31 354.02, 964.11 353.89 C 964.91 353.76, 964.52 353.94, 964.03 355.13 C 963.55 356.32, 962.63 357.27, 961.68 359.86 C 960.74 362.45, 960.41 364.37, 959.32 368.09 C 958.22 371.81, 957.50 374.05, 956.21 378.47 C 954.92 382.88, 954.20 385.34, 952.87 390.16 C 951.54 394.98, 950.88 397.59, 949.55 402.57 C 948.22 407.55, 947.59 410.16, 946.22 415.06 C 944.86 419.96, 944.22 422.43, 942.72 427.07 C 941.22 431.72, 940.48 434.06, 938.75 438.29 C 937.01 442.51, 936.10 444.58, 934.06 448.20 C 932.01 451.82, 930.95 453.47, 928.53 456.39 C 926.11 459.30, 924.74 460.60, 921.97 462.78 C 919.19 464.95, 917.66 465.91, 914.66 467.25 C 911.67 468.59, 910.07 469.02, 907.00 469.49 C 903.93 469.95, 902.21 469.95, 899.33 469.58 C 896.44 469.22, 895.04 468.84, 892.57 467.65 C 890.10 466.46, 888.89 465.57, 886.99 463.62 C 885.09 461.66, 884.15 460.46, 883.09 457.86 C 882.03 455.25, 881.66 453.87, 881.68 450.60 C 881.71 447.34, 881.87 445.45, 883.20 441.51 C 884.53 437.58, 885.47 435.31, 888.35 430.93 C 891.22 426.55, 893.17 424.24, 897.57 419.63 C 901.96 415.02, 904.64 412.56, 910.33 407.88 C 916.02 403.19, 919.36 400.73, 926.02 396.20 C 932.68 391.67, 936.46 389.46, 943.61 385.24 C 950.77 381.01, 954.54 378.89, 961.80 375.08 C 969.06 371.26, 972.86 369.42, 979.91 366.15 C 986.95 362.88, 990.55 361.43, 997.02 358.72 C 1003.48 356.02, 1006.62 354.73, 1012.23 352.62 C 1017.83 350.50, 1020.55 349.59, 1025.05 348.13 C 1029.54 346.68, 1031.66 346.33, 1034.69 345.32 C 1037.72 344.31, 1038.81 343.94, 1040.19 343.08 C 1041.56 342.22, 1041.83 341.73, 1041.56 341.01 C 1041.29 340.30, 1040.59 339.63, 1038.85 339.49 C 1037.11 339.36, 1035.68 339.24, 1032.87 340.34 C 1030.06 341.43, 1028.41 342.78, 1024.80 344.97 C 1021.19 347.15, 1018.88 348.46, 1014.84 351.28 C 1010.79 354.09, 1008.50 355.75, 1004.58 359.04 C 1000.66 362.33, 998.52 364.31, 995.23 367.73 C 991.94 371.15, 990.24 372.95, 988.13 376.15 C 986.02 379.35, 985.14 380.98, 984.68 383.74 C 984.22 386.51, 984.56 388.02, 985.84 389.97 C 987.12 391.93, 988.43 392.94, 991.09 393.51 C 993.75 394.09, 995.58 393.86, 999.14 392.85 C 1002.71 391.84, 1004.68 390.71, 1008.90 388.45 C 1013.13 386.20, 1015.60 384.69, 1020.26 381.57 C 1024.93 378.44, 1027.53 376.36, 1032.23 372.81 C 1036.93 369.26, 1039.57 367.17, 1043.75 363.79 C 1047.94 360.41, 1050.50 358.55, 1053.16 355.91 C 1055.82 353.26, 1056.70 351.81, 1057.05 350.55 C 1057.40 349.30, 1056.40 348.92, 1054.89 349.64 C 1053.39 350.36, 1051.77 351.53, 1049.53 354.14 C 1047.29 356.75, 1045.72 359.13, 1043.70 362.70 C 1041.67 366.26, 1040.43 368.56, 1039.40 371.98 C 1038.37 375.40, 1038.03 377.19, 1038.54 379.80 C 1039.05 382.41, 1039.81 383.69, 1041.96 385.02 C 1044.12 386.35, 1045.85 386.77, 1049.32 386.46 C 1052.80 386.14, 1054.89 385.22, 1059.33 383.45 C 1063.77 381.69, 1066.35 380.31, 1071.51 377.64 C 1076.67 374.97, 1079.69 373.17, 1085.11 370.12 C 1090.53 367.06, 1093.57 365.13, 1098.61 362.35 C 1103.65 359.58, 1106.59 358.08, 1110.32 356.23 C 1114.05 354.39, 1115.71 353.76, 1117.26 353.12 C 1118.80 352.48, 1118.55 352.28, 1118.03 353.04 C 1117.52 353.80, 1116.28 354.67, 1114.68 356.91 C 1113.08 359.15, 1111.98 361.16, 1110.04 364.22 C 1108.11 367.27, 1106.57 369.19, 1105.02 372.20 C 1103.47 375.21, 1102.49 376.90, 1102.28 379.27 C 1102.07 381.64, 1102.47 382.90, 1103.95 384.06 C 1105.44 385.23, 1106.74 385.72, 1109.70 385.09 C 1112.66 384.47, 1114.47 383.07, 1118.77 380.95 C 1123.07 378.84, 1125.94 377.13, 1131.20 374.50 C 1136.46 371.88, 1139.65 370.11, 1145.06 367.82 C 1150.46 365.54, 1153.58 364.32, 1158.23 363.07 C 1162.89 361.81, 1165.21 361.59, 1168.33 361.56 C 1171.46 361.54, 1172.45 361.84, 1173.85 362.94 C 1175.25 364.04, 1175.17 364.89, 1175.33 367.08 C 1175.48 369.28, 1175.04 370.84, 1174.64 373.90 C 1174.23 376.95, 1173.66 378.95, 1173.29 382.37 C 1172.93 385.79, 1172.45 387.75, 1172.83 390.99 C 1173.22 394.23, 1173.52 396.02, 1175.23 398.56 C 1176.94 401.11, 1178.27 402.38, 1181.38 403.70 C 1184.50 405.01, 1187.05 405.01, 1190.80 405.14 C 1194.55 405.28, 1196.92 405.08, 1200.14 404.36 C 1203.36 403.64, 1205.64 402.55, 1206.89 401.55 C 1208.14 400.55, 1207.87 399.73, 1206.39 399.35 C 1204.90 398.98, 1202.56 399.49, 1199.47 399.68 C 1196.38 399.86, 1194.22 400.36, 1190.95 400.29 C 1187.67 400.21, 1185.49 400.11, 1183.08 399.29 C 1180.66 398.48, 1179.94 397.95, 1178.87 396.20 C 1177.80 394.46, 1177.85 393.23, 1177.74 390.58 C 1177.63 387.92, 1177.92 386.16, 1178.30 382.93 C 1178.69 379.70, 1179.41 377.74, 1179.66 374.41 C 1179.91 371.09, 1180.32 369.15, 1179.57 366.31 C 1178.81 363.48, 1178.13 361.90, 1175.88 360.25 C 1173.64 358.60, 1172.03 358.08, 1168.33 358.05 C 1164.64 358.03, 1162.29 358.72, 1157.41 360.14 C 1152.53 361.56, 1149.45 362.86, 1143.93 365.15 C 1138.41 367.44, 1135.18 369.17, 1129.82 371.61 C 1124.46 374.05, 1121.43 375.58, 1117.14 377.35 C 1112.84 379.12, 1110.74 379.50, 1108.33 380.47 C 1105.92 381.44, 1105.55 382.19, 1105.11 382.18 C 1104.66 382.16, 1105.19 381.86, 1106.11 380.41 C 1107.04 378.96, 1108.00 377.58, 1109.73 374.93 C 1111.45 372.29, 1112.81 370.28, 1114.76 367.18 C 1116.70 364.09, 1118.35 362.28, 1119.45 359.45 C 1120.55 356.62, 1120.81 354.85, 1120.27 353.02 C 1119.73 351.19, 1119.05 350.27, 1116.76 350.30 C 1114.47 350.34, 1112.73 351.28, 1108.82 353.20 C 1104.92 355.12, 1102.23 356.99, 1097.22 359.89 C 1092.22 362.80, 1089.19 364.72, 1083.78 367.72 C 1078.36 370.72, 1075.29 372.46, 1070.15 374.90 C 1065.01 377.35, 1062.32 378.53, 1058.05 379.94 C 1053.78 381.36, 1051.71 381.56, 1048.81 381.97 C 1045.92 382.37, 1044.89 382.48, 1043.59 381.97 C 1042.28 381.46, 1042.22 381.09, 1042.30 379.42 C 1042.38 377.75, 1042.77 376.43, 1043.98 373.63 C 1045.19 370.84, 1046.36 368.70, 1048.36 365.44 C 1050.35 362.19, 1052.22 360.20, 1053.95 357.38 C 1055.69 354.55, 1056.68 352.97, 1057.04 351.34 C 1057.39 349.71, 1057.04 348.86, 1055.74 349.22 C 1054.45 349.58, 1053.34 350.68, 1050.56 353.13 C 1047.77 355.58, 1045.81 357.98, 1041.80 361.46 C 1037.79 364.94, 1035.15 367.03, 1030.51 370.53 C 1025.86 374.03, 1023.22 376.05, 1018.57 378.97 C 1013.92 381.89, 1011.38 383.25, 1007.26 385.14 C 1003.13 387.03, 1001.05 387.60, 997.93 388.41 C 994.82 389.23, 993.56 389.25, 991.68 389.20 C 989.80 389.15, 989.17 389.11, 988.54 388.18 C 987.92 387.26, 988.00 386.57, 988.56 384.57 C 989.12 382.58, 989.52 381.13, 991.35 378.22 C 993.17 375.31, 994.61 373.37, 997.68 370.04 C 1000.74 366.70, 1002.85 364.72, 1006.68 361.57 C 1010.50 358.42, 1012.77 356.81, 1016.82 354.28 C 1020.87 351.76, 1023.24 350.61, 1026.91 348.96 C 1030.58 347.30, 1032.54 347.10, 1035.16 346.01 C 1037.77 344.93, 1038.70 344.50, 1039.97 343.53 C 1041.24 342.56, 1041.65 341.85, 1041.51 341.17 C 1041.36 340.49, 1040.86 340.05, 1039.24 340.14 C 1037.63 340.24, 1036.47 340.60, 1033.44 341.66 C 1030.41 342.72, 1028.49 343.69, 1024.07 345.44 C 1019.66 347.20, 1016.94 348.16, 1011.37 350.43 C 1005.80 352.71, 1002.66 354.03, 996.21 356.83 C 989.75 359.62, 986.15 361.10, 979.10 364.42 C 972.04 367.74, 968.22 369.60, 960.94 373.44 C 953.65 377.28, 949.87 379.40, 942.66 383.62 C 935.46 387.85, 931.65 390.05, 924.91 394.56 C 918.17 399.07, 914.78 401.52, 908.96 406.18 C 903.13 410.85, 900.39 413.26, 895.77 417.88 C 891.16 422.49, 889.07 424.77, 885.90 429.26 C 882.72 433.74, 881.56 436.06, 879.91 440.31 C 878.25 444.55, 877.84 446.65, 877.64 450.48 C 877.44 454.31, 877.71 456.19, 878.91 459.46 C 880.10 462.73, 881.29 464.36, 883.63 466.83 C 885.96 469.30, 887.54 470.37, 890.58 471.81 C 893.61 473.25, 895.38 473.65, 898.80 474.03 C 902.22 474.41, 904.18 474.34, 907.70 473.72 C 911.21 473.10, 913.04 472.53, 916.37 470.94 C 919.70 469.35, 921.38 468.22, 924.36 465.76 C 927.35 463.29, 928.78 461.82, 931.30 458.63 C 933.82 455.44, 934.91 453.65, 936.98 449.81 C 939.05 445.98, 939.95 443.83, 941.67 439.46 C 943.39 435.10, 944.11 432.70, 945.59 427.98 C 947.07 423.26, 947.71 420.78, 949.08 415.86 C 950.46 410.94, 951.09 408.33, 952.47 403.37 C 953.85 398.41, 954.53 395.81, 955.98 391.06 C 957.43 386.31, 958.19 383.90, 959.73 379.61 C 961.28 375.32, 962.23 373.24, 963.70 369.61 C 965.16 365.99, 966.33 364.38, 967.05 361.48 C 967.77 358.58, 967.80 357.08, 967.29 355.11 C 966.78 353.14, 966.26 352.21, 964.50 351.63 C 962.75 351.06, 961.46 351.09, 958.52 352.24 C 955.58 353.39, 953.90 354.86, 949.79 357.37 C 945.68 359.88, 943.11 361.56, 937.96 364.80 C 932.80 368.03, 929.65 370.10, 924.01 373.53 C 918.36 376.97, 915.24 378.94, 909.74 381.97 C 904.24 384.99, 901.38 386.50, 896.50 388.65 C 891.62 390.80, 889.07 391.71, 885.33 392.72 C 881.59 393.73, 880.02 393.68, 877.80 393.70 C 875.59 393.72, 875.03 393.72, 874.27 392.84 C 873.51 391.96, 873.68 391.26, 874.01 389.32 C 874.33 387.39, 874.94 385.93, 875.89 383.15 C 876.84 380.38, 877.75 378.54, 878.76 375.44 C 879.77 372.34, 880.77 370.45, 880.95 367.65 C 881.12 364.85, 880.93 363.24, 879.63 361.45 C 878.33 359.66, 877.20 358.81, 874.43 358.69 C 871.66 358.57, 869.81 359.31, 865.77 360.86 C 861.73 362.41, 859.13 363.93, 854.24 366.45 C 849.36 368.96, 846.39 370.77, 841.36 373.43 C 836.33 376.10, 833.49 377.68, 829.10 379.77 C 824.70 381.86, 822.37 382.68, 819.41 383.88 C 816.45 385.09, 815.41 385.56, 814.29 385.81 C 813.16 386.05, 813.29 386.14, 813.79 385.12 C 814.30 384.10, 815.33 383.15, 816.80 380.72 C 818.28 378.29, 819.37 376.15, 821.16 372.96 C 822.95 369.76, 824.62 367.73, 825.76 364.75 C 826.90 361.78, 827.31 359.97, 826.87 358.10 C 826.43 356.23, 825.67 355.22, 823.56 355.43 C 821.46 355.63, 819.84 356.80, 816.35 359.12 C 812.86 361.44, 810.48 363.77, 806.11 367.04 C 801.74 370.31, 799.10 372.38, 794.48 375.49 C 789.87 378.59, 787.31 380.29, 783.04 382.57 C 778.76 384.85, 776.54 385.79, 773.10 386.90 C 769.66 388.01, 768.05 388.08, 765.85 388.13 C 763.64 388.18, 762.96 388.16, 762.06 387.16 C 761.16 386.17, 761.21 385.34, 761.37 383.15 C 761.52 380.97, 761.76 379.30, 762.85 376.25 C 763.94 373.19, 765.18 371.05, 766.81 367.89 C 768.44 364.73, 769.99 362.88, 771.00 360.44 C 772.01 358.00, 772.11 356.58, 771.86 355.69 C 771.60 354.79, 771.00 354.65, 769.71 355.97 C 768.42 357.29, 767.65 359.02, 765.41 362.29 C 763.16 365.57, 761.64 368.31, 758.50 372.35 C 755.37 376.38, 753.36 378.73, 749.73 382.48 C 746.11 386.23, 744.03 388.16, 740.39 391.11 C 736.75 394.05, 734.79 395.40, 731.55 397.19 C 728.31 398.97, 726.62 399.27, 724.19 400.03 C 721.76 400.80, 720.84 401.15, 719.41 401.01 C 717.98 400.87, 717.51 400.58, 717.04 399.31 C 716.57 398.05, 716.71 397.09, 717.07 394.67 C 717.43 392.25, 717.65 390.55, 718.85 387.20 C 720.04 383.86, 721.00 381.65, 723.04 377.94 C 725.08 374.22, 726.49 372.12, 729.05 368.63 C 731.60 365.14, 733.12 363.37, 735.82 360.49 C 738.53 357.61, 740.00 356.24, 742.56 354.23 C 745.12 352.21, 746.59 351.69, 748.60 350.40 C 750.61 349.11, 751.46 348.67, 752.61 347.77 C 753.77 346.87, 754.08 346.36, 754.38 345.90 C 754.69 345.44, 754.59 345.17, 754.16 345.48 C 753.73 345.79, 753.40 346.13, 752.23 347.43 C 751.05 348.73, 750.32 349.68, 748.29 351.98 C 746.25 354.29, 744.99 355.87, 742.04 358.95 C 739.09 362.02, 737.23 363.85, 733.54 367.36 C 729.85 370.88, 727.76 372.93, 723.59 376.53 C 719.42 380.12, 717.05 382.10, 712.68 385.32 C 708.31 388.55, 706.00 390.16, 701.74 392.65 C 697.48 395.14, 695.37 396.24, 691.38 397.77 C 687.40 399.30, 685.48 399.76, 681.83 400.28 C 678.17 400.81, 676.55 400.81, 673.10 400.38 C 669.65 399.94, 667.99 399.45, 664.57 398.11 C 661.15 396.77, 659.48 395.74, 656.01 393.68 C 652.54 391.62, 650.81 390.35, 647.22 387.82 C 643.64 385.30, 641.72 383.72, 638.08 381.05 C 634.44 378.38, 632.54 377.01, 629.02 374.46 C 625.50 371.92, 623.67 370.59, 620.48 368.33 C 617.29 366.06, 615.68 364.71, 613.07 363.13 C 610.47 361.54, 609.04 361.19, 607.45 360.39 C 605.87 359.59, 605.16 359.74, 605.15 359.11 C 605.13 358.48, 605.56 358.49, 607.38 357.25 C 609.20 356.00, 610.59 355.09, 614.27 352.91 C 617.94 350.72, 620.49 349.32, 625.77 346.33 C 631.04 343.33, 634.45 341.60, 640.64 337.91 C 646.82 334.22, 650.49 332.10, 656.69 327.88 C 662.90 323.66, 666.29 321.30, 671.68 316.82 C 677.08 312.34, 679.79 309.98, 683.66 305.49 C 687.54 301.00, 689.14 298.63, 691.06 294.36 C 692.98 290.10, 693.50 287.92, 693.26 284.15 C 693.02 280.39, 692.19 278.26, 689.88 275.54 C 687.58 272.82, 685.60 271.74, 681.73 270.54 C 677.87 269.33, 675.52 269.10, 670.56 269.52 C 665.60 269.94, 662.70 270.52, 656.93 272.64 C 651.17 274.76, 647.91 276.35, 641.72 280.13 C 635.52 283.91, 632.18 286.32, 625.97 291.55 C 619.75 296.78, 616.47 299.87, 610.64 306.28 C 604.82 312.70, 601.89 316.39, 596.83 323.60 C 591.78 330.82, 589.41 334.88, 585.36 342.38 C 581.32 349.88, 579.56 353.88, 576.62 361.11 C 573.68 368.34, 572.43 372.06, 570.66 378.52 C 568.89 384.98, 568.30 388.23, 567.77 393.42 C 567.24 398.60, 567.11 401.08, 568.02 404.45 C 568.92 407.81, 570.08 409.18, 572.31 410.24 C 574.54 411.30, 576.27 411.25, 579.17 409.73 C 582.07 408.21, 583.47 406.42, 586.81 402.65 C 590.15 398.89, 592.00 396.32, 595.86 390.89 C 599.71 385.47, 601.97 382.07, 606.08 375.54 C 610.19 369.00, 612.49 365.17, 616.41 358.22 C 620.33 351.27, 622.41 347.40, 625.69 340.78 C 628.98 334.15, 630.48 330.65, 632.84 325.09 C 635.19 319.53, 636.12 316.92, 637.46 313.00 C 638.81 309.07, 639.22 307.72, 639.54 305.47 C 639.86 303.21, 639.53 302.56, 639.06 301.74 C 638.60 300.91, 637.96 300.82, 637.22 301.36" style="stroke: black; fill: black;"/></svg>